<?xml version="1.0" encoding="utf-8"?>
<!-- Generator: Adobe Illustrator 19.2.1, SVG Export Plug-In . SVG Version: 6.00 Build 0)  -->
<svg version="1.1" id="layer" xmlns="http://www.w3.org/2000/svg" xmlns:xlink="http://www.w3.org/1999/xlink" x="0px" y="0px"
	 viewBox="0 0 652 652" style="enable-background:new 0 0 652 652;" xml:space="preserve">
<style type="text/css">
	.st0{fill:#00B9F1;}
</style>
<g>
	<g>
		<path class="st0" d="M57.9,304.9c4.7,0,8.2-1.6,10.5-4.8c2.2-3.2,3.4-8.3,3.4-15.2c0-7-1.1-12.1-3.3-15.3
			c-2.2-3.2-5.7-4.8-10.5-4.8c-4.4,0-8.5,1.1-12.4,3.4v33.4C49.2,303.8,53.4,304.9,57.9,304.9 M30.1,343.6c-1.1,0-1.9-0.2-2.4-0.7
			c-0.5-0.5-0.8-1.3-0.8-2.5v-84.6c0-1.2,0.2-2,0.8-2.5c0.5-0.5,1.3-0.7,2.4-0.7h9.1c1.9,0,3.1,0.9,3.5,2.8l0.9,3.3
			c2.5-2.4,5.6-4.4,9.2-5.8c3.6-1.4,7.2-2.2,11-2.2c8.2,0,14.7,3,19.5,9c4.8,6,7.2,14.1,7.2,24.4c0,7-1.2,13.2-3.5,18.4
			c-2.4,5.2-5.6,9.3-9.6,12.1c-4.1,2.8-8.7,4.3-14,4.3c-3.5,0-6.8-0.6-9.9-1.6c-3.1-1.1-5.8-2.6-8-4.6v27.8c0,1.2-0.2,2-0.7,2.5
			c-0.5,0.5-1.3,0.7-2.5,0.7H30.1z"/>
		<path class="st0" d="M105.6,317.5c-1.1,0-1.9-0.3-2.4-0.8c-0.5-0.5-0.8-1.3-0.8-2.4v-58.5c0-1.2,0.2-2,0.8-2.5
			c0.5-0.5,1.3-0.7,2.4-0.7h9.1c1.9,0,3.1,0.9,3.5,2.8l1.7,6.9c3.4-3.7,6.6-6.4,9.6-7.9c3-1.6,6.2-2.3,9.6-2.3h1.8
			c1.2,0,2,0.2,2.5,0.7c0.5,0.5,0.8,1.3,0.8,2.5v10.7c0,1.1-0.2,1.9-0.7,2.4c-0.5,0.5-1.3,0.8-2.5,0.8c-0.6,0-1.3,0-2.3-0.1
			c-0.9-0.1-2.1-0.1-3.5-0.1c-1.9,0-4.3,0.3-7.1,0.8c-2.8,0.6-5.2,1.2-7.1,2.1v42.6c0,1.1-0.2,1.9-0.7,2.4c-0.5,0.5-1.3,0.8-2.5,0.8
			H105.6z"/>
		<path class="st0" d="M155.7,317.5c-1.1,0-1.9-0.2-2.4-0.8c-0.5-0.5-0.8-1.3-0.8-2.4v-58.5c0-1.2,0.2-2,0.8-2.5
			c0.5-0.5,1.3-0.7,2.4-0.7h12.2c1.2,0,2,0.2,2.5,0.7c0.5,0.5,0.7,1.3,0.7,2.5v58.5c0,1.1-0.2,1.9-0.7,2.4c-0.5,0.5-1.3,0.8-2.5,0.8
			H155.7z M161.8,242.6c-3.2,0-5.8-0.9-7.7-2.7c-2-1.8-2.9-4.2-2.9-7.2c0-3,1-5.5,2.9-7.2c1.9-1.8,4.5-2.7,7.7-2.7
			c3.2,0,5.8,0.9,7.7,2.7c1.9,1.8,2.9,4.2,2.9,7.2c0,3-1,5.5-2.9,7.2C167.6,241.7,165,242.6,161.8,242.6"/>
		<path class="st0" d="M189.4,317.5c-1.1,0-1.9-0.3-2.4-0.8c-0.5-0.5-0.8-1.3-0.8-2.4v-58.5c0-1.2,0.2-2,0.8-2.5
			c0.5-0.5,1.3-0.7,2.4-0.7h9.1c1.9,0,3.1,0.9,3.5,2.8l1,3.4c4.5-3,8.5-5.1,12.1-6.3c3.6-1.2,7.3-1.8,11.1-1.8
			c7.6,0,13,2.7,16.1,8.1c4.3-2.9,8.4-4.9,12.2-6.2c3.8-1.3,7.7-1.9,11.8-1.9c5.9,0,10.5,1.6,13.8,4.9c3.3,3.3,4.9,7.9,4.9,13.8
			v44.8c0,1.1-0.2,1.9-0.7,2.4c-0.5,0.5-1.3,0.8-2.5,0.8h-12.2c-1.1,0-1.9-0.3-2.4-0.8c-0.5-0.5-0.8-1.3-0.8-2.4v-40.7
			c0-5.8-2.6-8.6-7.7-8.6c-4.6,0-9.2,1.1-13.8,3.3v46.1c0,1.1-0.2,1.9-0.7,2.4c-0.5,0.5-1.3,0.8-2.5,0.8h-12.2
			c-1.1,0-1.9-0.3-2.4-0.8c-0.5-0.5-0.8-1.3-0.8-2.4v-40.7c0-5.8-2.6-8.6-7.7-8.6c-4.7,0-9.4,1.1-14,3.4v45.9c0,1.1-0.2,1.9-0.7,2.4
			c-0.5,0.5-1.3,0.8-2.5,0.8H189.4z"/>
		<path class="st0" d="M323,279.5c4.3,0,7.4-0.7,9.4-2c1.9-1.3,2.9-3.3,2.9-6c0-5.3-3.2-8-9.5-8c-8.1,0-12.8,5-14.1,15
			C315.1,279.2,318.8,279.5,323,279.5 M327.2,319.4c-10.5,0-18.5-2.9-24.2-8.6c-5.6-5.8-8.4-14-8.4-24.7c0-11,2.9-19.6,8.6-25.9
			c5.8-6.3,13.7-9.4,24-9.4c7.9,0,14,1.9,18.5,5.7c4.4,3.8,6.7,8.9,6.7,15.2c0,6.3-2.4,11.1-7.2,14.4c-4.8,3.3-11.8,4.9-21.1,4.9
			c-4.8,0-9-0.5-12.6-1.4c0.5,5.7,2.2,9.7,5.1,12.2c2.9,2.4,7.3,3.7,13.3,3.7c2.4,0,4.7-0.1,6.9-0.4c2.2-0.3,5.3-1,9.3-2
			c0.2-0.1,0.5-0.1,0.8-0.2c0.3,0,0.5-0.1,0.6-0.1c1.4,0,2.2,1,2.2,2.9v5.8c0,1.4-0.2,2.3-0.6,2.9c-0.4,0.6-1.1,1-2.2,1.5
			C340.7,318.2,334.1,319.4,327.2,319.4"/>
		<path d="M392.3,317.5c-1.1,0-1.9-0.3-2.4-0.8c-0.5-0.5-0.8-1.3-0.8-2.4v-58.5c0-1.2,0.2-2,0.8-2.5c0.5-0.5,1.3-0.7,2.4-0.7h9.1
			c1.9,0,3.1,0.9,3.5,2.8l1.2,4.2c7.6-5.9,15.7-8.9,24.4-8.9c6,0,10.6,1.6,13.9,4.9c3.3,3.3,4.9,7.9,4.9,13.9v44.8
			c0,1.1-0.2,1.9-0.7,2.4c-0.5,0.5-1.3,0.8-2.5,0.8h-12.2c-1.1,0-1.9-0.3-2.4-0.8c-0.5-0.5-0.8-1.3-0.8-2.4V275c0-3.5-0.8-6-2.3-7.6
			c-1.5-1.6-3.8-2.4-7-2.4c-4.7,0-9.3,1.4-13.8,4.3v45c0,1.1-0.2,1.9-0.7,2.4c-0.5,0.5-1.3,0.8-2.5,0.8H392.3z"/>
		<path d="M493,305.2c8.9,0,13.3-6.7,13.3-20.2c0-13.4-4.4-20-13.3-20c-8.9,0-13.3,6.7-13.3,20C479.7,298.5,484.1,305.2,493,305.2
			 M493,319.4c-10.1,0-17.9-3-23.6-9.1c-5.7-6-8.5-14.5-8.5-25.3c0-10.7,2.8-19.1,8.5-25.2c5.7-6,13.5-9.1,23.6-9.1
			c10.1,0,17.9,3,23.6,9.1c5.7,6.1,8.5,14.4,8.5,25.2c0,10.8-2.8,19.3-8.5,25.3C510.9,316.4,503.1,319.4,493,319.4"/>
		<path d="M552.1,317.5c-1.3,0-2.2-0.2-2.9-0.7c-0.6-0.5-1.2-1.3-1.6-2.6l-18.3-56.5c-0.4-1.3-0.6-2.3-0.6-3.1c0-1.3,0.9-2,2.5-2
			h12.8c1.2,0,2.1,0.3,2.7,0.8c0.6,0.5,1.1,1.4,1.3,2.5l10.1,43.5l10.9-43.5c0.3-1.2,0.8-2,1.5-2.5c0.6-0.5,1.6-0.8,3-0.8h9.3
			c1.4,0,2.3,0.3,3,0.8c0.6,0.5,1.1,1.4,1.5,2.5l11.2,43.6l9.5-43.6c0.3-1.2,0.7-2,1.3-2.5c0.6-0.5,1.5-0.8,2.7-0.8h12.3
			c1.7,0,2.5,0.7,2.5,2c0,0.8-0.2,1.8-0.6,3.1l-18.4,56.5c-0.4,1.3-1,2.1-1.6,2.6c-0.6,0.5-1.6,0.7-2.9,0.7h-10.8
			c-1.4,0-2.3-0.3-3-0.8c-0.6-0.5-1.1-1.3-1.5-2.5l-10.4-42.2l-10.5,42.2c-0.3,1.2-0.8,2-1.5,2.5c-0.6,0.5-1.6,0.8-3,0.8H552.1z"/>
		<path class="st0" d="M461.1,387.6c-37.4,27.6-91.5,42.2-138.2,42.2c-65.4,0-124.2-24.2-168.8-64.4c-3.5-3.2-0.4-7.5,3.8-5
			c48.1,28,107.5,44.8,168.9,44.8c41.4,0,86.9-8.6,128.8-26.4C462,376.2,467.3,383.1,461.1,387.6"/>
		<path class="st0" d="M476.7,369.9c-4.8-6.1-31.6-2.9-43.6-1.5c-3.6,0.4-4.2-2.7-0.9-5.1c21.4-15,56.4-10.7,60.5-5.7
			c4.1,5.1-1.1,40.2-21.1,57c-3.1,2.6-6,1.2-4.7-2.2C471.4,401.2,481.5,376,476.7,369.9"/>
	</g>
</g>
</svg>
